<?xml version="1.0" encoding="utf-8"?>
<!-- Generator: Adobe Illustrator 26.0.2, SVG Export Plug-In . SVG Version: 6.00 Build 0)  -->
<svg version="1.1" id="Layer_1" xmlns="http://www.w3.org/2000/svg" xmlns:xlink="http://www.w3.org/1999/xlink" x="0px" y="0px"
	 viewBox="0 0 612 792" style="enable-background:new 0 0 612 792;" xml:space="preserve">
<style type="text/css">
	.st0{fill:#FFFFFF;}
</style>
<g>
	<path d="M193.5,519.5c0-1.1,0-1.9,0-2.6c0-108.5,0-216.9,0-325.4c0-2.1,0.4-3.6,2.1-4.9c3-2.4,5.9-5.1,9.1-7.9c0,1,0,1.8,0,2.5
		c0,69.7,0,139.3,0,209c0,44.3,0,88.6,0,132.9c0,1.9,0.6,3,2.4,3.8c2.5,1,5,2.2,7.8,3.5c0.1-0.9,0.1-1.6,0.1-2.3
		c0-31.9,0-63.7,0-95.6c0.1-86.8,0.2-173.6,0.3-260.4c0-0.8,0.3-1.7,0.5-2.5c0.8,0.4,1.7,0.8,2.4,1.4c5.8,5,11.5,10.1,17.2,15.2
		c3.9,3.5,7.8,7,11.8,10.5c3.9,3.4,7.7,6.8,11.6,10.2c3.9,3.4,7.7,6.8,11.6,10.3c3.9,3.5,7.9,6.9,11.8,10.4
		c3.9,3.4,7.7,6.8,11.6,10.3c2.5,2.2,4.9,4.4,7.4,6.6c1,0.9,1.3,1.9,1.3,3.2c0,9.4,0,18.7,0,28.1c0,12.9,0,25.9,0,38.8
		c0,0.6,0,1.2,0,2.2c1-0.8,1.8-1.4,2.5-2c2.1-1.8,4.1-3.7,6.2-5.5c0.4-0.3,0.9-0.5,1.4-0.8c0.2,0.5,0.5,1.1,0.5,1.6
		c0,16.6,0,33.3,0,49.9c0,1.7,0.5,2.7,1.8,3.8c2.7,2.1,5.2,4.5,8.1,7c0-0.8,0-1.4,0-2c0-21.8,0-43.6,0-65.4c0-4.5,0-4.5,3.3-7.4
		c2.3-2,4.7-4.1,7-6.1c0.3-0.2,0.6-0.4,1.2-0.8c0.1,0.9,0.2,1.6,0.2,2.3c0,29,0,58,0,87.1c0,2.1,0.5,3.5,2.2,4.8
		c2.5,1.9,4.8,4.1,7.1,6.2c0.2,0.2,0.4,0.3,0.8,0.6c0-0.9,0.1-1.6,0.1-2.2c0-35.2,0-70.5,0-105.7c0-1.9,0.6-3.1,2.1-4.3
		c2.8-2.2,5.4-4.7,8-7c0.3-0.2,0.6-0.5,1.2-0.9c0.1,1,0.2,1.7,0.2,2.4c0,41.9,0,83.8,0,125.7c0,1.8,0.5,3,1.8,4.1
		c2.5,2,4.8,4.1,7.1,6.2c0.4,0.3,0.8,0.5,1.5,1.1c0-1,0-1.7,0-2.4c0-48.1,0-96.1,0-144.2c0-1.9,0.6-3.1,2.1-4.3
		c2.6-2.1,5-4.4,7.5-6.7c0.4-0.4,0.9-0.7,1.5-1.3c0.2,0.6,0.3,1,0.4,1.3c0,0.6,0,1.2,0,1.8c0,54.5,0,109.1,0,163.6
		c0,1.6,0.2,2.9,1.7,4c2.7,2.1,5.1,4.5,8,7c0-1.1,0-1.9,0-2.6c0-57.8,0-115.7,0-173.5c0-1-0.1-2,0-3c0.1-0.9,0.4-1.8,0.6-2.6
		c0.9,0.4,2,0.5,2.7,1.2c4,3.4,7.8,7,11.8,10.5c5.5,4.9,11.1,9.8,16.7,14.7c3.8,3.4,7.6,6.8,11.4,10.2c8,7.1,16.1,14.3,24.1,21.4
		c6,5.3,11.8,10.6,17.9,15.7c2,1.7,2.5,3.4,2.5,5.8c-0.1,43.9,0,87.7,0,131.6c0,0.6,0,1.3,0,1.9c0.1,0,0.2,0.1,0.3,0.1
		c2.7-4.2,5.6-8.4,8.2-12.6c3-5.1,6-10.2,8.7-15.4c2-3.8,3.7-7.9,5.6-11.8c0.4-0.8,0.9-1.8,1.5-2c1.1-0.3,2,0.6,2.7,1.6
		c3.8,5.4,7.7,10.7,11.6,16.1c0.3,0.3,1.1,0.5,1.6,0.4c4.6-1.1,9.2-2.3,13.9-3.4c1.5-0.4,2.9-0.6,4.4-1.1c1.1-0.4,2,0.1,2.5,0.8
		c0.3,0.5,0.3,1.5,0,2.1c-4.4,10.4-9.4,20.5-15.2,30.1c-4.9,8.3-10.1,16.3-16.1,23.9c-4.9,6-9.7,12.1-14.9,17.8
		c-4.8,5.3-9.8,10.5-15,15.3c-5.7,5.3-11.6,10.4-17.9,15.1c-7.5,5.6-15.3,10.8-23.2,15.8c-6.1,3.8-12.6,7.2-19,10.5
		c-11.4,5.9-23.4,10.5-35.6,14.4c-13.6,4.4-27.5,7.5-41.7,9.5c-6.8,0.9-13.6,1.5-20.5,1.9c-6.9,0.4-13.9,0.7-20.9,0.6
		c-6.8-0.1-13.6-0.6-20.3-1.5c-8.5-1-17.1-2.3-25.5-3.9c-11.7-2.2-23.2-5.5-34.4-9.7c-7.4-2.7-14.6-5.9-21.8-9
		c-11-4.9-21.4-10.8-31.4-17.5c-7.4-5-14.6-10.3-21.5-15.8c-5.4-4.3-10.4-9-15.4-13.8c-4.8-4.6-9.5-9.2-13.8-14.2
		c-4.9-5.6-9.7-11.5-14.1-17.5c-4.9-6.7-9.4-13.6-13.8-20.5c-4.5-7-8.3-14.4-11.8-22c-0.7-1.6-1.6-3.1-2.3-4.7
		c-0.7-1.6-0.7-3.1,0.4-4.8c3.7-5.7,7.2-11.5,10.8-17.4c1.4-2.2,1.5-2.3,4-1.6c5.7,1.5,11.3,3.1,17,4.5c2.3,0.6,3.8,1.7,4.7,3.9
		c3.5,8.5,8.1,16.3,12.8,24.1c2.3,3.7,4.8,7.3,7.2,10.9c0.4,0.6,0.7,1.2,1.1,1.9c0-1,0-1.8,0-2.5c0-69.3,0-138.6-0.1-207.9
		c0-2.7,0.7-4.6,2.8-6.3c2.6-2.1,5-4.3,7.5-6.5c0.2-0.2,0.5-0.3,1.1-0.6c0.1,0.9,0.2,1.6,0.2,2.3c0,22.9,0,45.7,0,68.6
		c0,55.1,0,110.2-0.1,165.2c0,2.3,1.4,3.3,2.5,4.7c2,2.3,4.1,4.4,6.2,6.6c0.5,0.5,0.9,1.1,1.6,1.9c0-0.9,0-1.6,0-2.2
		c0-84,0-168,0-252c0-4.5,0-4.5,3.3-7.4c2.3-2,4.6-4,6.9-6c0.3-0.2,0.7-0.4,1-0.5c0.2,0.4,0.4,0.8,0.5,1.2c0.1,0.6,0,1.2,0,1.8
		c0,91.2,0,182.3,0,273.5c0,1.7,0.5,2.9,1.8,4c2.3,1.8,4.5,3.8,6.8,5.6c0.3,0.2,0.7,0.3,1.3,0.6c0-1,0-1.7,0-2.4
		c0-96.8,0-193.7,0-290.5c0-2.4,0.6-4.1,2.6-5.6c2.4-1.8,4.5-4,6.7-6c0.6-0.6,1.3-1,2.3-1.8c0.1,1,0.2,1.7,0.2,2.3
		c0,35.4,0,70.8,0,106.1c0,68.3,0,136.5,0,204.8c0,1.8,0.6,2.8,2.2,3.6c2.1,1.1,4.1,2.5,6.1,3.8C192,518.7,192.6,519,193.5,519.5z
		 M248.1,483.1c0-3.4,0-6.4-0.1-9.5c0-0.3-0.7-0.9-1.1-0.9c-2,0.1-4.1,0-5.9,0.6c-5.6,1.9-8.7,7-8.9,13.2c-0.2,8.2,8.4,14.4,15.9,13
		c7.1-1.3,11.3-6.3,11.5-13.9c0.2-6.9,0-13.8,0.1-20.7c0-1.2-0.5-1.6-1.6-1.6c-2,0-3.9,0-5.9,0c-2.1,0-2.1,0.1-2.1,2.1
		c0,6.5,0,13,0,19.5c0,1.2-0.4,2.5-1,3.5c-1,1.8-3.7,2.1-5.6,0.8c-1.8-1.3-2-3.8-0.6-5.4C244.2,482.3,245.9,482,248.1,483.1z
		 M275.9,489.1c0,3.1,0,5.9,0,8.7c0,1.5,0.6,1.9,2,2c8.5,0.2,15.2-7.4,13.9-15.9c-1.1-7-6.8-11.5-13.8-11.4
		c-7.4,0-13.2,5.4-13.4,12.6c-0.3,7.5-0.1,14.9-0.1,22.4c0,1,0.4,1.4,1.4,1.3c2,0,4,0,6,0c2.2,0,2.2,0,2.2-2.2
		c0-6.4-0.1-12.8,0.1-19.2c0-1.4,0.5-2.9,1.2-4.1c1-1.7,3.9-1.7,5.6-0.2c1.5,1.3,1.6,3.6,0.4,5.1
		C279.8,489.9,278.2,490.3,275.9,489.1z M354.1,489.2c0,3.3,0,6.3,0,9.3c0,1.1,0.8,1.3,1.7,1.3c3.3,0.2,6.3-0.7,9-2.8
		c5.7-4.4,7.2-12.4,3.3-18.1c-3-4.4-7.2-6.4-12.6-6.2c-6.4,0.2-12.2,5-12.5,11.4c-0.4,7.8-0.3,15.6-0.4,23.4c0,1,0.4,1.3,1.4,1.3
		c2.1,0,4.1,0,6.2,0c2,0,2.1-0.1,2.1-2c0-6.3,0-12.5,0-18.8c0-1.2,0.2-2.4,0.6-3.5c0.5-1.5,2-2.5,3.6-2.4c1.7,0.1,3.3,1.2,3.8,2.8
		c0.5,1.6-0.1,3.2-1.5,4.2C357.3,490.1,355.9,490,354.1,489.2z M323.7,481.3C323.6,481.3,323.6,481.3,323.7,481.3c0-5.5,0-11,0-16.5
		c0-1-0.5-1.4-1.5-1.4c-2.2,0-4.4,0-6.6,0c-1.1,0-1.5,0.4-1.5,1.5c0,10.9,0,21.8,0,32.7c0,1.2,0.5,1.6,1.6,1.6c1.9,0,3.8,0,5.7,0
		c2.3,0,2.3,0,2.3-2.3C323.7,491.7,323.7,486.5,323.7,481.3z M296.2,491.2c0,0,0.1,0,0.1,0c0,2.2,0,4.3,0,6.5c0,1.1,0.4,1.5,1.5,1.5
		c2.3,0,4.5-0.1,6.8,0c1.3,0,1.7-0.5,1.6-1.7c0-3.4,0-6.7,0-10.1c0-0.8,0.1-1.6,0.2-2.4c0.4-1.9,1.2-2.5,3-2.4
		c1,0.1,1.3-0.3,1.2-1.2c0-2.5,0-4.9,0-7.4c0-1-0.4-1.4-1.4-1.5c-6.6-1-12.1,3.3-12.7,9.9C296.4,485.4,296.3,488.3,296.2,491.2z
		 M338.7,473.4c-0.5-0.2-0.7-0.3-0.8-0.3c-2.7,0-5.4-0.1-8.1,0c-0.5,0-1.2,0.6-1.5,1.2c-1.2,2.1-2.3,4.2-3.2,6.4
		c-0.3,0.8-0.4,1.9-0.2,2.7c1.7,4.9,3.5,9.7,5.2,14.6c0.3,0.9,0.8,1.3,1.8,1.3c2.6,0,5.1,0,7.7,0c0.5,0,0.9-0.1,1.6-0.2
		c-0.2-0.7-0.4-1.1-0.5-1.6c-1.8-4.2-3.6-8.5-5.5-12.6c-0.7-1.6-0.8-2.9,0.2-4.5C336.4,478.1,337.4,475.8,338.7,473.4z M252,564.4
		c-0.2,0-0.3,0-0.5,0c-0.3-0.8-0.7-1.6-1-2.5c-0.9-2.4-1.8-4.8-2.6-7.2c-0.5-1.4-1.6-1.4-2.7-1.4c-0.3,0-0.8,1-1,1.5
		c-1,3.5-1.8,7.1-2.8,10.6c-0.2,0.9-0.4,1.7,0.9,2c1.4,0.4,1.6-0.4,1.9-1.4c0.4-1.6,0.8-3.2,1.2-4.8c0.2-0.8,0.5-1.5,0.8-2.3
		c0.6,0.7,0.9,1.3,1.2,1.9c1,2.5,2,4.9,2.9,7.4c0.5,1.5,1.8,1.5,3,1.5c0.3,0,0.8-1.1,0.9-1.7c0.8-3.5,1.5-7.1,2.2-10.6
		c0.2-0.8,0.5-1.5-0.8-1.8c-1.3-0.3-1.7,0.2-1.9,1.4c-0.1,0.9-0.4,1.8-0.6,2.6C252.7,561.2,252.4,562.8,252,564.4z M399.9,548
		c0.1-0.2,0.2-0.4,0.4-0.6c1.6-1.7,1.8-3.5,0.6-5.3c-1-1.6-2.8-2.1-4.9-1.4c-2.4,0.9-4.8,2-7.2,2.9c-0.7,0.3-0.9,0.7-0.6,1.4
		c1.6,3.8,3.1,7.6,4.6,11.4c0.4,1,1.1,0.9,2,0.6c0.9-0.3,0.9-0.9,0.6-1.7c-0.3-0.8-0.6-1.6-1-2.4c-0.8-2-0.6-2.5,1.6-2.9
		c0.7-0.1,1.5,0,2.2,0.2c1.3,0.5,2.5,1,3.6,1.8c1.8,1.3,3.2,0.7,5-0.5C404.4,550.4,402.2,549.2,399.9,548z M190.1,547.4
		c0.7-1.2,1.2-2.1,1.8-3.1c1.2-2.3,1.9-2.4,3.7-0.5c0.5,0.6,0.9,1.3,1.2,2.1c0.4,1.1,0.7,2.2,0.8,3.3c0.1,2,1.4,2.7,3.3,3.2
		c-0.5-2.6-1-5-1.6-7.5c0.2,0,0.4,0,0.6,0c2.3,0.2,3.9-0.6,4.5-2.5c0.7-2.1,0.1-3.8-2.1-5c-2.2-1.2-4.4-2.3-6.6-3.5
		c-0.9-0.5-1.4-0.3-1.9,0.6c-1.1,2.1-2.3,4.2-3.4,6.3c-0.9,1.7-1.8,3.4-2.7,5.2C188.5,546.6,189.2,547,190.1,547.4z M299.6,567.6
		c-0.3-4.4-2.5-7.1-6.3-7.4c-1.7-0.1-3.4-0.2-5.1-0.3c-1.3-0.1-1.8,0.3-1.9,1.7c-0.2,3.7-0.5,7.4-0.8,11.1c-0.1,1.3,0.4,1.8,1.5,1.9
		c1.8,0.1,3.7,0.3,5.5,0.2c2.1-0.1,4.2-0.4,5.3-2.5C298.8,570.9,299.1,569.2,299.6,567.6z M212,542.2c-4,0-7.3,3.6-7.4,8
		c-0.1,4.9,4.4,7.2,8.5,7.5c3.9,0.2,7.1-3.4,7.1-7.7C220.2,545.5,216.6,542.2,212,542.2z M363.7,567.1c-0.1-0.5-0.2-1.2-0.4-1.7
		c-0.8-1.8-0.1-3.2,0.9-4.6c0.7-0.9,1.3-0.9,2.1-0.2c1.3,1.1,2.6,2.2,3.9,3.2c1.7,1.4,2.4,1.4,4.5,0c-2.5-2-5-3.9-7.4-5.8
		c-0.7-0.5-0.9-1-0.4-1.7c0.8-1.3,1.5-2.6,2.2-3.9c0.3-0.5,0.4-1,0.8-1.7c-1.7,0.1-2.9,0.4-3.7,1.8c-1,1.8-2.2,3.6-3.3,5.4
		c-0.3,0.4-0.6,0.8-1.1,1.4c-0.5-1.8-1-3.2-1.4-4.6c-0.3-1-0.6-1.5-1.8-1.2c-1.2,0.3-1,1-0.8,1.9c0.9,3.5,1.7,7,2.6,10.5
		C361.1,568.2,361.4,568.3,363.7,567.1z M305.5,566.7c-0.2,0-0.3-0.1-0.5-0.1c0-1.6,0-3.1,0-4.7c0-0.9-0.4-1.3-1.3-1.3
		c-0.9,0-1.4,0.3-1.4,1.3c0,3.9,0,7.8,0,11.7c0,1.3,0.8,1.4,1.8,1.4c1.2,0,1.1-0.7,1-1.5c-0.5-2.1,0.6-3.5,2.2-4.7
		c0.6-0.5,1.1-0.5,1.6,0.2c1.1,1.5,2.2,3,3.4,4.4c1.2,1.5,2.2,1.7,4.1,0.9c-1.4-1.7-2.7-3.3-4-5.1c-2.9-3.9-2.9-2.7,0.2-5.9
		c0.5-0.5,1-1,1.5-1.5c0.3-0.4,0.6-0.8,1-1.4c-1.8-0.3-3.1-0.3-4.2,1c-1.4,1.5-2.9,2.9-4.3,4.4C306.2,566.1,305.8,566.4,305.5,566.7
		z M269.9,562c0.3-1.8-0.6-3.5-2.4-4.1c-1.4-0.4-2.8-0.6-4.2-0.7c-1.9-0.1-3.4,0.9-3.8,2.3c-0.6,2,0,3.7,1.8,4.8
		c1.4,0.8,3,1.4,4.4,2.2c0.6,0.4,1.4,1.5,1.3,1.8c-0.4,0.7-1.2,1.5-2,1.6c-2.1,0.4-3.7-0.5-4.7-2.6c-0.5-1.1-1.4-1.1-2.3-0.8
		c-1.1,0.3-0.7,1.3-0.3,1.9c0.7,1,1.5,2.2,2.5,2.6c1.8,0.7,3.9,0.8,5.8,1.1c0.4,0.1,0.8-0.1,1.2-0.2c1.5-0.4,2.4-1.5,2.7-3
		c0.3-1.6,0.1-3.3-1.5-4.3c-1.7-1-3.5-1.9-5.3-2.8c-0.4-0.2-0.8-0.8-0.9-1.2c0-0.4,0.4-0.9,0.8-1.1c1.3-0.7,3.4-0.1,4.1,1.2
		C267.6,562,268.6,562.1,269.9,562z M418.6,545.6c2.6-0.6,2.9-1,2.6-3.3c-0.1-1,0.2-1.7,1.1-2.2c1.1-0.6,2.1-1.3,3.2-2
		c1.1-0.8,1.9-0.9,3,0.1c1.8,1.5,2.3,1.3,3.6-0.8c-3.9-2.7-7.7-5.4-11.6-8.1c-0.7-0.5-1.4-0.7-2.2-0.2c-0.8,0.5-1,1-0.9,2
		c0.3,3.2,0.5,6.4,0.7,9.6C418.3,542.3,418.4,543.9,418.6,545.6z M176.3,539.5c0.7-1,1.4-2,1.9-3c0.6-1.3,1.4-1.3,2.5-0.6
		c1,0.6,2.1,1.2,3.2,1.7c2.9,1.2,5.7-0.3,6.2-3.4c0.3-2-0.5-3.5-2.2-4.6c-1.6-1.1-3.4-2-5-3c-1.2-0.8-1.7-0.4-2.4,0.7
		c-1.8,2.9-3.7,5.8-5.5,8.8C173.6,538.2,173.7,538.4,176.3,539.5z M390.1,558.6c0-0.1,0-0.2-0.1-0.3c-3.3-3.4-6.6-6.9-9.9-10.2
		c-1-1-2.8-0.2-2.9,1.2c-0.5,4.4-1,8.8-1.4,13.3c0,0.4,0.2,1,0.5,1.1c0.8,0.4,2.5-0.7,2.4-1.6c-0.3-2.2,1-3,2.8-3.4
		c0.7-0.1,1.4-0.3,2-0.7c1.3-0.7,2.2-0.3,3.1,0.7C387.8,559.9,388.6,559.9,390.1,558.6z M343,571.6c1.4-0.3,2.9,0.2,3.1-1.4
		c0.3-2.3,1.6-3,3.6-3.2c0.6-0.1,1.3-0.2,1.9-0.4c1.2-0.4,2,0,2.6,1.1c1.1,1.7,1.7,1.8,3.7,0.6c-2.7-3.6-5.3-7.3-8-10.9
		c-0.2-0.3-0.7-0.4-1-0.4c-0.8-0.1-1.6,0-2.5,0C345.4,561.8,344.3,566.5,343,571.6z M223.9,546.8c0,4.8-0.1,9.5,0.1,14.3
		c0,0.5,1.1,1.2,1.8,1.5c0.5,0.2,1.4-0.1,1.8-0.6c2.3-2.6,4.5-5.2,6.7-7.8c0.8-1,1.6-2.1,2.5-3.1c-2.1-1.2-2.3-1.2-3.6,0.3
		c-1.3,1.5-2.5,3.1-3.8,4.6c-0.7,0.9-1.5,1.7-2.5,2.8c-0.2-0.7-0.3-0.9-0.3-1.2c-0.1-2.7-0.2-5.4-0.3-8.1
		C226.2,547.3,226.1,547.1,223.9,546.8z M413,534.7c-0.7-1.9-0.7-1.9-2.3-1.1c-2.7,1.3-5.4,2.7-8.1,4c-0.7,0.3-0.9,0.7-0.5,1.4
		c0.3,0.7,0.7,1.1,1.5,0.6c0.5-0.3,1.1-0.5,1.6-0.8c1-0.6,1.6-0.5,2.2,0.7c1.4,2.8,2.9,5.6,4.3,8.4c0.4,0.7,0.7,1,1.6,0.7
		c1.3-0.5,1.5-1.2,0.8-2.4c-1.5-2.6-2.8-5.2-4.2-7.8c-0.5-0.9-0.8-1.7,0.5-2.3C411.4,535.8,412.2,535.2,413,534.7z M334.3,573.1
		c4.7,0,6.6-2.3,5.9-6.5c-0.4-2.5-0.8-4.9-1.2-7.4c-0.2-1.3-1.4-1.8-2.3-0.9c-0.4,0.4-0.4,1.3-0.3,1.9c0.3,2.7,0.8,5.3,1.1,8
		c0.2,1.8-0.8,2.8-2.4,2.6c-0.7-0.1-1.6-0.6-2.1-1.2c-0.7-1.1-1.6-0.8-2.3-0.3c-0.3,0.2-0.3,1.2-0.1,1.7
		C331.3,572.9,333,573.1,334.3,573.1z M234.9,565.2c2.5,1.3,2.7,1.2,3.3-1.2c1-3.6,1.9-7.2,2.9-10.7c0.2-0.7,0.2-1.3-0.7-1.5
		c-0.8-0.2-1.5-0.4-1.8,0.6c-0.3,1.1-0.7,2.1-1,3.2C236.7,558.8,235.8,562,234.9,565.2z M277.1,560.1c-0.2-0.2-0.6-0.8-1.1-1
		c-0.9-0.3-1.5,0.1-1.6,1.2c-0.4,3.9-0.9,7.8-1.4,11.7c-0.1,0.9,0.3,1.3,1.1,1.4c1.3,0.2,1.5-0.7,1.6-1.6
		C276.2,568,276.6,564.3,277.1,560.1z M321.6,572.3c-0.3-3.8-0.6-7.6-0.9-11.3c-0.1-1-0.7-1.1-1.5-1.1c-0.8,0-1,0.5-0.9,1.2
		c0.2,3.9,0.4,7.9,0.7,11.8c0.1,1,0.6,1.4,1.5,1.4C322.2,574.4,321.4,573.1,321.6,572.3z M254.3,458.6
		C254.3,458.6,254.3,458.6,254.3,458.6c-2,0-4.1,0-6.1,0.1c-0.4,0-1.1,0.7-1.1,1c0,0.4,0.6,0.9,1,1.2c0.1,0.1,0.5,0.1,0.7,0.1
		c3.8,0,7.6,0,11.4,0c0.8,0,1.5-0.1,1.5-1.2c0-1.1-0.7-1.2-1.5-1.2C258.2,458.6,256.3,458.6,254.3,458.6z M256.5,435.6
		c-0.2,0-0.3,0-0.5,0c-0.2,2.6-1.9,4.3-3.3,6.3c-1.3,1.8-2.5,3.6-3.4,5.6c-1,2.2-0.3,5,0.8,6c0.1-1.2,0-2.8,0.3-4.4
		c0.1-0.9,0.6-1.8,1-2.7c0.6-1.2,1.3-2.3,1.9-3.5c0.6-1.1,1.2-2.2,1.8-3.2c0.3-0.5,0.8-0.8,1.2-1.2c0.2,0.1,0.4,0.2,0.5,0.2
		C256.8,437.7,256.7,436.6,256.5,435.6z M259.1,454.5c1.7-1.5,2.2-3.3,1.3-5c-0.8-1.6-1.8-3-2.6-4.4c-0.3,0.4-0.7,0.7-1,1.1
		c-0.4-0.7-0.7-1.5-1.1-2.3c-0.6,1.9,0,3.5,1.2,5C258.1,450.3,259.8,451.8,259.1,454.5z M252.8,451.2c-0.2,0.2-0.4,0.4-0.6,0.6
		c0.7,0.6,1.4,1.3,2.1,1.9c0.1-0.1,0.3-0.3,0.4-0.4C254,452.6,253.4,451.9,252.8,451.2z"/>
	<path d="M306.9,80c2.7,0,5.5-0.1,8.2,0c4.3,0.3,8.6,0.5,12.8,1.2c8.5,1.2,17,2.5,25.5,4.1c7.1,1.4,14.2,3.1,21.1,5.2
		c7,2.1,13.9,4.7,20.8,7.4c13.4,5.1,26.2,11.7,38.4,19.2c6.6,4.1,13.3,8.2,19.7,12.7c4.6,3.2,8.9,6.9,13.2,10.6
		c5.5,4.8,11.1,9.7,16.3,14.9c5.2,5.3,10,10.9,14.8,16.5c4.1,4.8,8,9.7,11.7,14.9c4.3,6.1,8.3,12.5,12.2,18.9
		c7,11.5,12.8,23.6,17.6,36.2c2.9,7.9,5.7,15.8,7.9,23.9c2.4,8.6,4.3,17.3,5.9,26.1c1.2,6.5,1.8,13.2,2.5,19.8
		c1,8.9,1.5,17.8,1.2,26.7c-0.3,7.3-0.7,14.6-1.5,21.8c-0.7,7.2-1.6,14.4-3.1,21.5c-1.7,8.5-4,16.8-6.1,25.2
		c-0.5,2.2-1.3,4.3-1.9,6.5c-0.4,1.3-1.1,2.1-2.4,2.4c-7.5,1.8-14.9,3.6-22.4,5.4c-1.1,0.3-1.9,0-2.6-1c-2.7-3.9-5.4-7.9-8.1-11.8
		c-0.9-1.3-1.7-2.6-2.6-3.8c-0.9-1.3-1.1-2.7-0.6-4.2c3.9-11.7,6.8-23.7,8.4-36c1-7.6,1.4-15.3,1.9-23c0.3-3.9,0.4-7.9,0.3-11.9
		c-0.4-14.6-1.8-29.2-5.3-43.4c-1.4-5.6-3.3-11.1-4.9-16.7c-0.7-2.4-1.3-4.8-2-7.2c-0.3-0.9-0.7-1.7-1.1-2.6
		c-1.3-3.1-2.6-6.3-4.1-9.4c-3.6-7.4-7.1-14.8-11-22c-2.9-5.3-6.2-10.4-9.7-15.3c-4.8-6.6-9.8-13-15.1-19.2c-4.4-5.1-9.1-10-14-14.6
		c-4.5-4.3-9.2-8.4-14.1-12.2c-5.7-4.4-11.7-8.4-17.6-12.5c-7-4.8-14.5-9-22.2-12.4c-7.4-3.3-15-6.5-22.6-9.3
		c-13.4-5-27.3-8.1-41.4-10c-6.5-0.9-13-1.1-19.6-1.6c-2.2-0.2-2.8-0.5-3-2c0-0.4,0.1-0.9,0.3-1.2c3.8-5.3,7.7-10.5,11.5-15.8
		c0.6-0.9,0.7-1.4-0.1-2.3c-3.2-4-6.2-8.1-9.2-12.2c-1-1.3-2-2.5-2.9-3.8c-0.6-1-1-2.1-1.5-3.2C306.6,80.3,306.8,80.1,306.9,80z"/>
	<path d="M48.2,333.3c-0.4-16,1.2-31.8,4.4-47.4c1.7-8.4,3.6-16.8,6-25c3.3-11.5,7.6-22.7,12.6-33.6c5.7-12.3,12.4-24.2,20-35.4
		c5.6-8.3,11.6-16.3,18.3-23.8c3.4-3.9,6.9-7.6,10.5-11.4c13.3-14,28.3-26,44.5-36.5c13.1-8.5,26.9-15.6,41.4-21.6
		c15.1-6.2,30.7-10.9,46.7-14c7.9-1.5,15.9-2.4,23.9-3.5c3.2-0.4,6.5-0.8,9.7-0.9c1.2,0,2.8,0.9,3.5,1.8c4.4,5.6,8.7,11.3,13,16.9
		c1.1,1.5,1.2,2.3,0.1,3.9c-3.6,5.3-7.3,10.5-10.9,15.8c-1.3,1.9-3.1,2.2-5.1,2.3c-10.8,0.6-21.4,2.3-31.9,4.7
		c-10.6,2.4-21,5.3-31,9.5c-7.5,3.2-14.9,6.7-22.2,10.3c-4.3,2.1-8.4,4.5-12.4,7c-3.8,2.3-7.5,4.9-11.1,7.5
		c-3.9,2.8-7.8,5.8-11.6,8.8c-2.9,2.3-5.6,4.7-8.3,7.2c-3.8,3.6-7.6,7.1-11.2,10.9c-4.1,4.4-8,9-12,13.7c-5.8,6.9-10.9,14.3-15.6,22
		c-5.7,9.2-10.6,18.8-14.8,28.8c-6.9,16.1-11.5,32.9-14.2,50.2c-1,6-1.5,12.1-1.9,18.2c-0.4,6.5-0.7,13-0.6,19.5
		c0.2,10.5,1.2,20.9,2.9,31.2c1.8,10.4,4.4,20.7,7.5,30.8c0.7,2.3-0.1,3.2-2.4,2.6c-5.7-1.5-11.3-2.9-17-4.5c-1.4-0.4-2.2-0.1-3,1.1
		c-3.6,5.6-7.2,11.2-10.9,16.7c-0.4,0.6-1.2,1.2-1.8,1.2c-0.6-0.1-1.3-0.9-1.5-1.5c-1.4-4.3-2.7-8.7-3.9-13.1
		c-1.7-6.2-3.5-12.4-4.8-18.6c-1.3-6.3-2.3-12.7-3-19.1c-0.8-6.8-1.4-13.6-1.8-20.5C48,341.5,48.2,337.4,48.2,333.3z"/>
	<path class="st0" d="M248.1,483.1c-2.2-1.1-3.9-0.8-5.3,0.8c-1.5,1.6-1.2,4.1,0.6,5.4c1.8,1.4,4.6,1.1,5.6-0.8c0.6-1.1,1-2.4,1-3.5
		c0.1-6.5,0-13,0-19.5c0-2,0.1-2.1,2.1-2.1c2,0,3.9,0,5.9,0c1.1,0,1.6,0.4,1.6,1.6c0,6.9,0.1,13.8-0.1,20.7
		c-0.2,7.6-4.4,12.5-11.5,13.9c-7.5,1.4-16.1-4.8-15.9-13c0.2-6.3,3.3-11.4,8.9-13.2c1.8-0.6,3.9-0.5,5.9-0.6c0.4,0,1.1,0.6,1.1,0.9
		C248.2,476.7,248.1,479.7,248.1,483.1z"/>
	<path class="st0" d="M275.9,489.1c2.3,1.2,4,0.8,5.4-0.9c1.3-1.5,1.2-3.8-0.4-5.1c-1.8-1.5-4.6-1.5-5.6,0.2
		c-0.7,1.2-1.2,2.7-1.2,4.1c-0.1,6.4-0.1,12.8-0.1,19.2c0,2.1,0,2.2-2.2,2.2c-2,0-4,0-6,0c-0.9,0-1.4-0.4-1.4-1.3
		c0-7.5-0.2-14.9,0.1-22.4c0.2-7.1,6-12.5,13.4-12.6c7,0,12.6,4.4,13.8,11.4c1.4,8.4-5.4,16.1-13.9,15.9c-1.4,0-2-0.5-2-2
		C275.9,495,275.9,492.2,275.9,489.1z"/>
	<path class="st0" d="M354.1,489.2c1.8,0.8,3.2,0.9,4.7-0.1c1.4-1,2-2.7,1.5-4.2c-0.5-1.5-2.1-2.7-3.8-2.8c-1.6-0.1-3.1,0.9-3.6,2.4
		c-0.3,1.1-0.6,2.4-0.6,3.5c-0.1,6.3,0,12.5,0,18.8c0,1.9-0.1,2-2.1,2c-2.1,0-4.1,0-6.2,0c-0.9,0-1.4-0.4-1.4-1.3
		c0.1-7.8,0-15.6,0.4-23.4c0.3-6.3,6.1-11.2,12.5-11.4c5.4-0.2,9.6,1.7,12.6,6.2c3.9,5.7,2.3,13.7-3.3,18.1c-2.7,2.1-5.6,3-9,2.8
		c-0.9-0.1-1.6-0.2-1.7-1.3C354.1,495.4,354.1,492.4,354.1,489.2z"/>
	<path class="st0" d="M323.7,481.3c0,5.2,0,10.4,0,15.6c0,2.2,0,2.2-2.3,2.3c-1.9,0-3.8,0-5.7,0c-1.1,0-1.6-0.4-1.6-1.6
		c0-10.9,0-21.8,0-32.7c0-1.1,0.5-1.5,1.5-1.5c2.2,0,4.4,0,6.6,0c1,0,1.5,0.4,1.5,1.4C323.6,470.3,323.6,475.8,323.7,481.3
		C323.6,481.3,323.6,481.3,323.7,481.3z"/>
	<path class="st0" d="M296.2,491.2c0.1-2.9,0.2-5.8,0.4-8.7c0.6-6.6,6.1-10.8,12.7-9.9c1,0.1,1.4,0.5,1.4,1.5c0,2.5,0,4.9,0,7.4
		c0,0.9-0.3,1.2-1.2,1.2c-1.9-0.1-2.6,0.5-3,2.4c-0.2,0.8-0.2,1.6-0.2,2.4c0,3.4,0,6.7,0,10.1c0,1.2-0.4,1.7-1.6,1.7
		c-2.2-0.1-4.5,0-6.8,0c-1.1,0-1.5-0.4-1.5-1.5c0-2.1,0-4.3,0-6.5C296.3,491.2,296.3,491.2,296.2,491.2z"/>
	<path class="st0" d="M338.7,473.4c-1.2,2.4-2.3,4.8-3.6,6.9c-1,1.6-0.9,2.9-0.2,4.5c1.9,4.2,3.7,8.4,5.5,12.6
		c0.2,0.4,0.3,0.9,0.5,1.6c-0.6,0.1-1.1,0.2-1.6,0.2c-2.6,0-5.1,0-7.7,0c-0.9,0-1.4-0.4-1.8-1.3c-1.7-4.9-3.5-9.7-5.2-14.6
		c-0.3-0.8-0.2-1.9,0.2-2.7c0.9-2.2,2.1-4.3,3.2-6.4c0.3-0.5,1-1.1,1.5-1.2c2.7-0.1,5.4,0,8.1,0C338,473.1,338.2,473.2,338.7,473.4z
		"/>
	<path class="st0" d="M252,564.4c0.4-1.6,0.7-3.2,1.1-4.8c0.2-0.9,0.4-1.8,0.6-2.6c0.2-1.1,0.6-1.7,1.9-1.4c1.3,0.3,0.9,1.1,0.8,1.8
		c-0.7,3.5-1.4,7.1-2.2,10.6c-0.1,0.6-0.6,1.7-0.9,1.7c-1.1,0-2.4,0-3-1.5c-0.9-2.5-1.9-5-2.9-7.4c-0.2-0.6-0.5-1.3-1.2-1.9
		c-0.3,0.8-0.5,1.5-0.8,2.3c-0.4,1.6-0.8,3.2-1.2,4.8c-0.2,1-0.5,1.8-1.9,1.4c-1.3-0.3-1.1-1.1-0.9-2c0.9-3.5,1.8-7.1,2.8-10.6
		c0.2-0.6,0.7-1.6,1-1.5c1,0,2.2,0.1,2.7,1.4c0.8,2.4,1.7,4.8,2.6,7.2c0.3,0.8,0.7,1.6,1,2.5C251.7,564.4,251.9,564.4,252,564.4z"/>
	<path class="st0" d="M399.9,548c2.3,1.2,4.5,2.3,6.9,3.6c-1.8,1.2-3.2,1.8-5,0.5c-1.1-0.8-2.4-1.3-3.6-1.8
		c-0.7-0.3-1.5-0.3-2.2-0.2c-2.2,0.4-2.4,0.9-1.6,2.9c0.3,0.8,0.6,1.6,1,2.4c0.3,0.8,0.3,1.3-0.6,1.7c-0.8,0.3-1.5,0.5-2-0.6
		c-1.5-3.8-3.1-7.6-4.6-11.4c-0.3-0.7-0.1-1.1,0.6-1.4c2.4-1,4.8-2,7.2-2.9c2.1-0.8,3.9-0.2,4.9,1.4c1.1,1.8,0.9,3.6-0.6,5.3
		C400.1,547.6,400,547.8,399.9,548z M398.9,545.3c-0.1-1.9-1.2-2.6-2.7-2.1c-1.3,0.4-2.6,1-3.9,1.6c-0.4,0.2-0.6,0.9-0.6,1.4
		c0,0.5,0.4,1,0.6,1.5c0.3,0.8,0.8,1.1,1.6,0.7c1.3-0.6,2.6-1,3.8-1.7C398.3,546.4,398.6,545.6,398.9,545.3z"/>
	<path class="st0" d="M190.1,547.4c-0.9-0.5-1.6-0.9-2.5-1.3c0.9-1.8,1.8-3.5,2.7-5.2c1.1-2.1,2.3-4.2,3.4-6.3
		c0.5-0.9,1-1.1,1.9-0.6c2.2,1.2,4.4,2.3,6.6,3.5c2.2,1.2,2.8,2.9,2.1,5c-0.7,1.9-2.2,2.8-4.5,2.5c-0.2,0-0.4,0-0.6,0
		c0.5,2.5,1,4.9,1.6,7.5c-1.9-0.5-3.2-1.2-3.3-3.2c-0.1-1.1-0.4-2.3-0.8-3.3c-0.3-0.7-0.6-1.5-1.2-2.1c-1.8-1.9-2.5-1.8-3.7,0.5
		C191.4,545.4,190.8,546.3,190.1,547.4z M199.9,543.1c0.6-0.6,1.5-0.9,1.7-1.6c0.2-0.5-0.1-1.6-0.5-2c-0.8-0.7-1.8-1.2-2.8-1.7
		c-2.5-1.3-2.9-1.1-3.8,1.5c-0.1,0.3-0.1,0.9,0.1,1C196.3,541.3,198,542.1,199.9,543.1z"/>
	<path class="st0" d="M299.6,567.6c-0.5,1.6-0.8,3.3-1.6,4.7c-1.1,2-3.3,2.4-5.3,2.5c-1.8,0.1-3.7-0.1-5.5-0.2
		c-1.2-0.1-1.6-0.6-1.5-1.9c0.3-3.7,0.6-7.4,0.8-11.1c0.1-1.4,0.6-1.9,1.9-1.7c1.7,0.1,3.4,0.2,5.1,0.3
		C297.1,560.5,299.3,563.2,299.6,567.6z M291.5,572.5c1.9,0.1,3.8,0,4.6-2.2c0.3-1,0.5-2.1,0.5-3.1c0-2.3-1-4.1-2.6-4.5
		c-1.1-0.3-2.2-0.3-3.3-0.4c-1-0.1-1.6,0.4-1.6,1.4c-0.1,2.4-0.4,4.8-0.5,7.2c-0.1,1,0.4,1.5,1.4,1.6
		C290.4,572.5,291,572.5,291.5,572.5z"/>
	<path class="st0" d="M212,542.2c4.6,0,8.2,3.4,8.2,7.7c0,4.3-3.2,8-7.1,7.7c-4.2-0.2-8.7-2.6-8.5-7.5
		C204.7,545.8,208,542.1,212,542.2z M212.5,544.6c-2.8,0-5.1,2.6-5.2,5.9c-0.1,2.4,2.5,4.9,5.2,4.9c2.6,0,5.1-3,5.2-6.2
		C217.7,546.7,215.3,544.6,212.5,544.6z"/>
	<path class="st0" d="M363.7,567.1c-2.3,1.2-2.6,1.1-3.1-1.2c-0.9-3.5-1.7-7-2.6-10.5c-0.2-0.8-0.4-1.5,0.8-1.9
		c1.2-0.3,1.5,0.2,1.8,1.2c0.4,1.4,0.8,2.8,1.4,4.6c0.5-0.6,0.9-1,1.1-1.4c1.1-1.8,2.3-3.6,3.3-5.4c0.8-1.4,1.9-1.7,3.7-1.8
		c-0.3,0.7-0.5,1.3-0.8,1.7c-0.7,1.3-1.4,2.6-2.2,3.9c-0.5,0.8-0.3,1.2,0.4,1.7c2.5,1.9,4.9,3.9,7.4,5.8c-2.1,1.3-2.8,1.3-4.5,0
		c-1.3-1.1-2.6-2.1-3.9-3.2c-0.8-0.7-1.4-0.7-2.1,0.2c-1.1,1.4-1.7,2.8-0.9,4.6C363.5,565.9,363.6,566.5,363.7,567.1z"/>
	<path class="st0" d="M305.5,566.7c0.4-0.3,0.7-0.6,1.1-0.9c1.5-1.4,3-2.8,4.3-4.4c1.1-1.3,2.5-1.3,4.2-1c-0.4,0.6-0.7,1-1,1.4
		c-0.5,0.5-1,1-1.5,1.5c-3.1,3.2-3.1,2-0.2,5.9c1.3,1.7,2.7,3.4,4,5.1c-1.9,0.8-3,0.6-4.1-0.9c-1.1-1.5-2.3-2.9-3.4-4.4
		c-0.5-0.7-1-0.7-1.6-0.2c-1.6,1.2-2.7,2.6-2.2,4.7c0.2,0.8,0.2,1.5-1,1.5c-1,0-1.8-0.1-1.8-1.4c0-3.9,0-7.8,0-11.7
		c0-1,0.5-1.3,1.4-1.3c0.9,0,1.3,0.4,1.3,1.3c0,1.6,0,3.1,0,4.7C305.2,566.6,305.3,566.6,305.5,566.7z"/>
	<path class="st0" d="M269.9,562c-1.3,0.1-2.3,0-2.9-1.3c-0.6-1.3-2.8-1.9-4.1-1.2c-0.4,0.2-0.8,0.8-0.8,1.1c0,0.4,0.4,1,0.9,1.2
		c1.7,1,3.6,1.8,5.3,2.8c1.6,1,1.8,2.6,1.5,4.3c-0.3,1.5-1.2,2.5-2.7,3c-0.4,0.1-0.8,0.3-1.2,0.2c-2-0.3-4-0.4-5.8-1.1
		c-1-0.4-1.8-1.6-2.5-2.6c-0.4-0.5-0.8-1.5,0.3-1.9c0.9-0.3,1.8-0.2,2.3,0.8c1,2,2.6,3,4.7,2.6c0.8-0.2,1.7-0.9,2-1.6
		c0.2-0.3-0.7-1.4-1.3-1.8c-1.4-0.9-3-1.4-4.4-2.2c-1.8-1.1-2.4-2.8-1.8-4.8c0.4-1.4,1.9-2.4,3.8-2.3c1.4,0.1,2.9,0.3,4.2,0.7
		C269.3,558.5,270.2,560.2,269.9,562z"/>
	<path class="st0" d="M418.6,545.6c-0.2-1.7-0.3-3.3-0.4-4.9c-0.2-3.2-0.4-6.4-0.7-9.6c-0.1-0.9,0.1-1.5,0.9-2
		c0.8-0.5,1.5-0.4,2.2,0.2c3.8,2.7,7.7,5.4,11.6,8.1c-1.3,2.1-1.8,2.3-3.6,0.8c-1.1-0.9-2-0.8-3-0.1c-1,0.7-2.1,1.4-3.2,2
		c-0.9,0.5-1.2,1.2-1.1,2.2C421.4,544.5,421.1,544.9,418.6,545.6z M425,535.8c-1.8-1.3-3.2-2.4-4.7-3.4c-0.2,1.7-0.1,3.2,0.2,4.7
		c0.1,0.3,0.8,0.8,0.9,0.7C422.6,537.2,423.6,536.6,425,535.8z"/>
	<path class="st0" d="M176.3,539.5c-2.6-1.1-2.7-1.4-1.3-3.5c1.9-2.9,3.7-5.8,5.5-8.8c0.6-1,1.2-1.4,2.4-0.7c1.6,1.1,3.4,2,5,3
		c1.6,1.1,2.5,2.6,2.2,4.6c-0.5,3.1-3.2,4.6-6.2,3.4c-1.1-0.5-2.2-1-3.2-1.7c-1.1-0.7-1.9-0.7-2.5,0.6
		C177.7,537.6,177,538.5,176.3,539.5z M184.5,535.5c2.1,0,3.6-1.7,2.8-2.8c-1.1-1.3-2.7-2.2-4.1-3.3c-0.7,0.9-1.5,1.8-2.2,2.6
		c-0.1,0.1-0.2,0.4-0.2,0.5c0,0.3,0,0.7,0.2,0.8C182.2,534.3,183.6,535,184.5,535.5z"/>
	<path class="st0" d="M390.1,558.6c-1.5,1.3-2.3,1.3-3.5,0c-0.9-1-1.8-1.4-3.1-0.7c-0.6,0.3-1.3,0.5-2,0.7c-1.9,0.4-3.1,1.2-2.8,3.4
		c0.1,0.9-1.6,2-2.4,1.6c-0.3-0.1-0.5-0.7-0.5-1.1c0.4-4.4,0.9-8.8,1.4-13.3c0.2-1.4,1.9-2.2,2.9-1.2c3.4,3.4,6.6,6.8,9.9,10.2
		C390.1,558.4,390.1,558.5,390.1,558.6z M379.9,551.3c-0.1,0.1-0.3,0.2-0.4,0.3c-0.1,1.3-0.3,2.7-0.4,4c-0.1,0.7,0.1,1.5,1,1.2
		c1.1-0.4,2.1-1.1,3.2-1.8c0,0-0.1-0.2-0.1-0.3C382,553.6,380.9,552.4,379.9,551.3z"/>
	<path class="st0" d="M343,571.6c1.2-5.1,2.4-9.8,3.5-14.6c0.9,0,1.7,0,2.5,0c0.4,0,0.8,0.2,1,0.4c2.7,3.6,5.3,7.2,8,10.9
		c-2,1.2-2.6,1.1-3.7-0.6c-0.7-1-1.4-1.4-2.6-1.1c-0.6,0.2-1.3,0.3-1.9,0.4c-2,0.2-3.3,0.9-3.6,3.2C346,571.8,344.4,571.4,343,571.6
		z M348.9,559.9c-0.2,0.1-0.3,0.1-0.5,0.2c-0.3,1.4-0.6,2.8-0.8,4.2c0,0.3,0.4,0.9,0.6,0.9c1-0.1,2-0.3,2.9-0.6
		c0.2-0.1,0.4-0.7,0.2-1C350.5,562.3,349.7,561.1,348.9,559.9z"/>
	<path class="st0" d="M223.9,546.8c2.2,0.4,2.3,0.5,2.3,2.7c0.1,2.7,0.2,5.4,0.3,8.1c0,0.3,0.1,0.5,0.3,1.2c1-1.1,1.8-1.9,2.5-2.8
		c1.3-1.5,2.5-3.1,3.8-4.6c1.3-1.5,1.5-1.6,3.6-0.3c-0.8,1.1-1.6,2.1-2.5,3.1c-2.2,2.6-4.4,5.3-6.7,7.8c-0.4,0.4-1.3,0.7-1.8,0.6
		c-0.7-0.2-1.8-0.9-1.8-1.5C223.8,556.3,223.9,551.6,223.9,546.8z"/>
	<path class="st0" d="M413,534.7c-0.8,0.5-1.6,1.1-2.5,1.5c-1.3,0.6-1.1,1.3-0.5,2.3c1.4,2.6,2.7,5.2,4.2,7.8
		c0.7,1.2,0.4,1.9-0.8,2.4c-0.9,0.4-1.3,0.1-1.6-0.7c-1.4-2.8-2.9-5.6-4.3-8.4c-0.6-1.2-1.1-1.4-2.2-0.7c-0.5,0.3-1.1,0.5-1.6,0.8
		c-0.8,0.4-1.2,0-1.5-0.6c-0.4-0.7-0.1-1.1,0.5-1.4c2.7-1.3,5.4-2.7,8.1-4C412.3,532.8,412.3,532.8,413,534.7z"/>
	<path class="st0" d="M334.3,573.1c-1.3,0-3-0.2-3.6-2.1c-0.2-0.5-0.2-1.6,0.1-1.7c0.7-0.4,1.6-0.7,2.3,0.3c0.4,0.6,1.3,1.1,2.1,1.2
		c1.7,0.2,2.6-0.8,2.4-2.6c-0.3-2.7-0.8-5.3-1.1-8c-0.1-0.6,0-1.5,0.3-1.9c0.9-0.9,2-0.4,2.3,0.9c0.4,2.5,0.8,4.9,1.2,7.4
		C340.9,570.9,339,573.1,334.3,573.1z"/>
	<path class="st0" d="M234.9,565.2c0.9-3.2,1.9-6.4,2.8-9.6c0.3-1.1,0.6-2.1,1-3.2c0.3-1,1.1-0.8,1.8-0.6c0.9,0.2,0.9,0.7,0.7,1.5
		c-1,3.6-2,7.1-2.9,10.7C237.6,566.3,237.3,566.4,234.9,565.2z"/>
	<path class="st0" d="M277.1,560.1c-0.5,4.3-0.9,8-1.3,11.7c-0.1,0.9-0.3,1.8-1.6,1.6c-0.8-0.1-1.3-0.5-1.1-1.4
		c0.5-3.9,0.9-7.8,1.4-11.7c0.1-1.1,0.7-1.5,1.6-1.2C276.5,559.2,276.9,559.9,277.1,560.1z"/>
	<path class="st0" d="M321.6,572.3c-0.2,0.8,0.6,2.1-1.2,2c-1,0-1.5-0.5-1.5-1.4c-0.2-3.9-0.4-7.9-0.7-11.8c0-0.7,0.1-1.2,0.9-1.2
		c0.8,0,1.4,0.1,1.5,1.1C320.9,564.8,321.3,568.5,321.6,572.3z"/>
	<path class="st0" d="M254.3,458.6c1.9,0,3.9,0,5.8,0c0.8,0,1.5,0.1,1.5,1.2c0,1.1-0.7,1.2-1.5,1.2c-3.8,0-7.6,0-11.4,0
		c-0.2,0-0.6,0.1-0.7-0.1c-0.4-0.4-0.9-0.8-1-1.2c0-0.3,0.7-1,1.1-1C250.2,458.5,252.3,458.6,254.3,458.6
		C254.3,458.6,254.3,458.6,254.3,458.6z"/>
	<path class="st0" d="M256.5,435.6c0.1,1,0.3,2.1,0.4,3.1c-0.2-0.1-0.4-0.2-0.5-0.2c-0.4,0.4-0.9,0.8-1.2,1.2
		c-0.7,1-1.2,2.1-1.8,3.2c-0.6,1.2-1.3,2.3-1.9,3.5c-0.4,0.9-0.9,1.7-1,2.7c-0.2,1.6-0.2,3.2-0.3,4.4c-1.1-1-1.8-3.8-0.8-6
		c0.9-2,2.1-3.8,3.4-5.6c1.4-2,3.1-3.7,3.3-6.3C256.2,435.6,256.4,435.6,256.5,435.6z"/>
	<path class="st0" d="M259.1,454.5c0.7-2.7-1-4.1-2.2-5.7c-1.2-1.5-1.9-3.1-1.2-5c0.4,0.8,0.8,1.6,1.1,2.3c0.3-0.4,0.7-0.7,1-1.1
		c0.8,1.4,1.8,2.8,2.6,4.4C261.3,451.1,260.8,453,259.1,454.5z"/>
	<path class="st0" d="M252.8,451.2c0.6,0.7,1.3,1.4,1.9,2.1c-0.1,0.1-0.3,0.3-0.4,0.4c-0.7-0.6-1.4-1.3-2.1-1.9
		C252.4,451.6,252.6,451.4,252.8,451.2z"/>
	<path d="M398.9,545.3c-0.2,0.3-0.6,1.1-1.2,1.4c-1.2,0.7-2.5,1.2-3.8,1.7c-0.8,0.4-1.3,0.1-1.6-0.7c-0.2-0.5-0.6-1-0.6-1.5
		c0-0.5,0.2-1.2,0.6-1.4c1.2-0.6,2.5-1.2,3.9-1.6C397.7,542.7,398.8,543.5,398.9,545.3z"/>
	<path d="M199.9,543.1c-1.9-1-3.6-1.8-5.3-2.7c-0.2-0.1-0.2-0.7-0.1-1c0.9-2.6,1.4-2.8,3.8-1.5c1,0.5,2,1,2.8,1.7
		c0.4,0.4,0.7,1.4,0.5,2C201.4,542.1,200.6,542.5,199.9,543.1z"/>
	<path d="M291.5,572.5c-0.5,0-1.1,0-1.6,0c-1,0-1.4-0.6-1.4-1.6c0.2-2.4,0.4-4.8,0.5-7.2c0.1-1.1,0.6-1.5,1.6-1.4
		c1.1,0.1,2.2,0.2,3.3,0.4c1.6,0.4,2.7,2.2,2.6,4.5c0,1-0.2,2.1-0.5,3.1C295.3,572.5,293.4,572.6,291.5,572.5z"/>
	<path d="M212.5,544.6c2.8,0,5.2,2.1,5.2,4.6c0,3.2-2.6,6.3-5.2,6.2c-2.7,0-5.2-2.4-5.2-4.9C207.4,547.2,209.7,544.5,212.5,544.6z"
		/>
	<path d="M425,535.8c-1.4,0.8-2.4,1.5-3.5,2c-0.2,0.1-0.9-0.4-0.9-0.7c-0.2-1.5-0.3-3-0.2-4.7C421.8,533.4,423.2,534.4,425,535.8z"
		/>
	<path d="M184.5,535.5c-0.9-0.5-2.2-1.3-3.6-2.1c-0.2-0.1-0.2-0.5-0.2-0.8c0-0.2,0.1-0.4,0.2-0.5c0.7-0.9,1.4-1.8,2.2-2.6
		c1.4,1.1,3,2,4.1,3.3C188.1,533.8,186.6,535.6,184.5,535.5z"/>
	<path d="M379.9,551.3c1.1,1.1,2.2,2.3,3.2,3.4c0.1,0.1,0.1,0.3,0.1,0.3c-1.1,0.6-2.1,1.3-3.2,1.8c-0.9,0.3-1.1-0.5-1-1.2
		c0.1-1.3,0.3-2.7,0.4-4C379.6,551.5,379.7,551.4,379.9,551.3z"/>
	<path d="M348.9,559.9c0.8,1.2,1.7,2.4,2.4,3.7c0.1,0.2-0.1,0.9-0.2,1c-0.9,0.3-1.9,0.5-2.9,0.6c-0.2,0-0.6-0.6-0.6-0.9
		c0.2-1.4,0.5-2.8,0.8-4.2C348.5,560,348.7,559.9,348.9,559.9z"/>
</g>
</svg>
